<?xml version="1.0" encoding="UTF-8"?>
<!-- Created with Inkscape (http://www.inkscape.org/) -->
<svg width="116.66mm" height="30.402mm" version="1.1" viewBox="0 0 116.66 30.402" xmlns="http://www.w3.org/2000/svg" xmlns:cc="http://creativecommons.org/ns#" xmlns:dc="http://purl.org/dc/elements/1.1/" xmlns:rdf="http://www.w3.org/1999/02/22-rdf-syntax-ns#">
 <metadata>
  <rdf:RDF>
   <cc:Work rdf:about="">
    <dc:format>image/svg+xml</dc:format>
    <dc:type rdf:resource="http://purl.org/dc/dcmitype/StillImage"/>
    <dc:title/>
   </cc:Work>
  </rdf:RDF>
 </metadata>
 <g transform="translate(59.087 -28.555)">
  <g id="flatspin-logo" transform="translate(-144.49 -88.897)">
   <path transform="matrix(.66667 .12036 .17863 -.44919 60.811 127.51)" d="m54.88-12.773-12.247-3.2815 8.9652-8.9652z" color="#000000" color-rendering="auto" fill="#c00" fill-rule="evenodd" image-rendering="auto" shape-rendering="auto" solid-color="#000000" style="isolation:auto;mix-blend-mode:normal;paint-order:normal"/>
   <path d="m97.368 120.54v2.1084h-2.8801q-1.3643 0-1.9017 0.56499-0.52365 0.55122-0.52365 1.9706v1.3643h5.3054v1.9706h-5.3054v13.463h-2.5356v-13.463h-4.1203v-1.9706h4.1203v-1.0749q0-2.5356 1.1576-3.7345 1.1713-1.1989 3.638-1.1989z" fill="#c00" style="font-feature-settings:normal;font-variant-caps:normal;font-variant-ligatures:normal;font-variant-numeric:normal"/>
   <path d="m104.79 136.39c0 1.1392 0.2067 1.9982 0.62011 2.5769 0.4226 0.57877 1.0427 0.86816 1.8604 0.86816h2.9628v2.1497h-3.2108c-1.5158 0-2.6918-0.48691-3.5278-1.4607-0.82682-0.97381-1.2402-2.3518-1.2402-4.1341v-15.999h2.5356z" fill="#3465a4" style="font-feature-settings:normal;font-variant-caps:normal;font-variant-ligatures:normal;font-variant-numeric:normal"/>
   <path transform="matrix(.66667 -.12272 .17863 .458 73.672 135.24)" d="m54.88-12.773-12.247-3.2815 8.9652-8.9652z" color="#000000" color-rendering="auto" fill="#3465a4" fill-rule="evenodd" image-rendering="auto" shape-rendering="auto" solid-color="#000000" style="isolation:auto;mix-blend-mode:normal;paint-order:normal"/>
   <g stroke-width=".26458px" style="font-feature-settings:normal;font-variant-caps:normal;font-variant-ligatures:normal;font-variant-numeric:normal" aria-label="atspin">
    <path d="m121.69 134.23h-0.8406q-2.2186 0-3.3486 0.78547-1.1162 0.7717-1.1162 2.3151 0 1.3918 0.8406 2.1635 0.8406 0.7717 2.3289 0.7717 2.0946 0 3.2935-1.4469 1.1989-1.4607 1.2127-4.0238v-0.56499zm4.9196-1.0473v8.8056h-2.5494v-2.2875q-0.81304 1.378-2.0533 2.0395-1.2264 0.64767-2.9903 0.64767-2.3564 0-3.762-1.3229-1.4056-1.3367-1.4056-3.5691 0-2.5769 1.7225-3.9136 1.7363-1.3367 5.0849-1.3367h3.4037v-0.39963q-0.0138-1.8466-0.93706-2.6734-0.92328-0.8406-2.949-0.8406-1.2954 0-2.6182 0.37207-1.3229 0.37207-2.5769 1.0886v-2.5356q1.4056-0.53743 2.6872-0.79926 1.2953-0.2756 2.508-0.2756 1.9155 0 3.2659 0.56499 1.3642 0.56499 2.2048 1.695 0.52365 0.68902 0.74413 1.7088 0.22049 1.006 0.22049 3.0317z" style="font-feature-settings:normal;font-variant-caps:normal;font-variant-ligatures:normal;font-variant-numeric:normal"/>
    <path d="m135.59 122.17v4.3821h5.7602v1.9706h-5.7602v8.3784q0 1.7088 0.64767 2.384 0.64768 0.67523 2.26 0.67523h2.8525v2.0257h-3.1006q-2.8525 0-4.0238-1.1438-1.1713-1.1438-1.1713-3.9412v-8.3784h-4.1203v-1.9706h4.1203v-4.3821z" style="font-feature-settings:normal;font-variant-caps:normal;font-variant-ligatures:normal;font-variant-numeric:normal"/>
    <path d="m155.65 127.09v2.4804q-1.0886-0.6339-2.1911-0.95084-1.1024-0.31695-2.2462-0.31695-1.7225 0-2.5769 0.56499-0.8406 0.55121-0.8406 1.695 0 1.0335 0.63389 1.5434 0.6339 0.50987 3.1557 0.99218l1.0197 0.19292q1.8879 0.35829 2.8525 1.4332 0.9784 1.0749 0.9784 2.7974 0 2.2875-1.6261 3.5829-1.6261 1.2816-4.5199 1.2816-1.1438 0-2.3978-0.24804-1.254-0.23427-2.7147-0.71658v-2.6182q1.4194 0.73035 2.7147 1.1024 1.2954 0.35829 2.4529 0.35829 1.6812 0 2.6045-0.67523 0.92328-0.68902 0.92328-1.9155 0-1.7639-3.3762-2.4391l-0.11025-0.0276-0.95084-0.19293q-2.1911-0.42718-3.197-1.4331-1.006-1.0197-1.006-2.7698 0-2.2186 1.502-3.4175 1.502-1.2127 4.2857-1.2127 1.2402 0 2.384 0.23426 1.1438 0.22049 2.2462 0.67524z" style="font-feature-settings:normal;font-variant-caps:normal;font-variant-ligatures:normal;font-variant-numeric:normal"/>
    <path d="m162.52 140.04v7.8134h-2.5494v-21.304h2.5494v1.9706q0.63389-1.1438 1.6812-1.7363 1.0611-0.60633 2.4391-0.60633 2.7974 0 4.3821 2.1635 1.5985 2.1635 1.5985 5.9944 0 3.762-1.5985 5.9117-1.5985 2.1359-4.3821 2.1359-1.4056 0-2.4667-0.59255-1.0473-0.60633-1.6536-1.7501zm7.4414-5.7602q0-2.949-0.93706-4.451-0.92328-1.502-2.756-1.502-1.8466 0-2.7974 1.5158-0.95084 1.502-0.95084 4.4372 0 2.9214 0.95084 4.4372t2.7974 1.5158q1.8328 0 2.756-1.502 0.93706-1.502 0.93706-4.451z" style="font-feature-settings:normal;font-variant-caps:normal;font-variant-ligatures:normal;font-variant-numeric:normal"/>
    <path d="m176 126.55h6.4905v13.463h5.0298v1.9706h-12.595v-1.9706h5.0298v-11.493h-3.9549zm3.9549-6.0082h2.5356v3.2108h-2.5356z" style="font-feature-settings:normal;font-variant-caps:normal;font-variant-ligatures:normal;font-variant-numeric:normal"/>
    <path d="m202.07 132.42v9.5635h-2.5494v-9.5635q0-2.0808-0.73036-3.0592-0.73035-0.9784-2.2875-0.9784-1.7777 0-2.7423 1.2678-0.95084 1.254-0.95084 3.6104v8.7229h-2.5356v-15.434h2.5356v2.3151q0.67524-1.3229 1.8328-1.9981 1.1575-0.68901 2.7423-0.68901 2.3564 0 3.514 1.5572 1.1713 1.5434 1.1713 4.6853z" style="font-feature-settings:normal;font-variant-caps:normal;font-variant-ligatures:normal;font-variant-numeric:normal"/>
   </g>
  </g>
 </g>
</svg>
