<?xml version="1.0" encoding="UTF-8" standalone="no"?>
<!-- Created with Inkscape (http://www.inkscape.org/) -->

<svg
   xmlns:dc="http://purl.org/dc/elements/1.1/"
   xmlns:cc="http://creativecommons.org/ns#"
   xmlns:rdf="http://www.w3.org/1999/02/22-rdf-syntax-ns#"
   xmlns:svg="http://www.w3.org/2000/svg"
   xmlns="http://www.w3.org/2000/svg"
   xmlns:xlink="http://www.w3.org/1999/xlink"
   xmlns:sodipodi="http://sodipodi.sourceforge.net/DTD/sodipodi-0.dtd"
   xmlns:inkscape="http://www.inkscape.org/namespaces/inkscape"
   width="20.740864mm"
   height="27.779345mm"
   viewBox="0 0 20.740864 27.779345"
   version="1.1"
   id="svg8"
   inkscape:version="0.92.2 5c3e80d, 2017-08-06"
   sodipodi:docname="IBM-logo.svg">
  <defs
     id="defs2">
    <clipPath
       id="clipPath45"
       clipPathUnits="userSpaceOnUse">
      <path
         inkscape:connector-curvature="0"
         id="path43"
         d="M 0,84.075 H 58.793 V 0 H 0 Z" />
    </clipPath>
    <clipPath
       id="b">
      <path
         inkscape:connector-curvature="0"
         d="M 0,-1 V 82 H 55.937 V 318 H 1.523 v 82 h 194.65 V 318 H 140.235 V 82 h 54.414 V -1 Z m 554.02,1 v 82 h 55.938 v 236 h -54.414 v 82 h 138.71 V 171.84 l 82.656,228.08 1.68,0.04 81.172,-228.12 V 400 h 140.23 V 318 H 944.054 V 82 h 54.415 V 0 H 842.139 L 777.413,182.89 711.866,0 Z"
         id="path2" />
      <path
         inkscape:connector-curvature="0"
         id="a"
         d="m 222.23,0 v 82 h 55.937 v 130 h 215.31 v -24.928 c 0,0 18.011,-14.042 23.75,-27.367 L 528.75,133.85 c 0,0 5.352,-14.472 5.352,-27.405 L 531.797,80.59 c 0,0 -3.616,-21.063 -9.922,-27.328 L 499.609,27.367 C 499.609,27.367 471.276,0 433.75,0 Z m 140.23,82 h 81.992 v 76 H 362.46 Z" />
      <use
         height="100%"
         width="100%"
         y="0"
         x="0"
         transform="matrix(1,0,0,-1,0,400)"
         xlink:href="#a"
         id="use5" />
    </clipPath>
  </defs>
  <sodipodi:namedview
     id="base"
     pagecolor="#ffffff"
     bordercolor="#666666"
     borderopacity="1.0"
     inkscape:pageopacity="0.0"
     inkscape:pageshadow="2"
     inkscape:zoom="4.7079374"
     inkscape:cx="65.292783"
     inkscape:cy="72.468447"
     inkscape:document-units="mm"
     inkscape:current-layer="layer1"
     showgrid="true"
     fit-margin-top="0"
     fit-margin-left="0"
     fit-margin-right="0"
     fit-margin-bottom="0"
     inkscape:window-width="1280"
     inkscape:window-height="675"
     inkscape:window-x="0"
     inkscape:window-y="1"
     inkscape:window-maximized="1">
    <inkscape:grid
       type="xygrid"
       id="grid85"
       originx="-16.843858"
       originy="-239.35438" />
  </sodipodi:namedview>
  <metadata
     id="metadata5">
    <rdf:RDF>
      <cc:Work
         rdf:about="">
        <dc:format>image/svg+xml</dc:format>
        <dc:type
           rdf:resource="http://purl.org/dc/dcmitype/StillImage" />
        <dc:title></dc:title>
      </cc:Work>
    </rdf:RDF>
  </metadata>
  <g
     inkscape:label="Layer 1"
     inkscape:groupmode="layer"
     id="layer1"
     transform="translate(-16.843857,-29.866278)">
    <path
       transform="matrix(0.02012809,0,0,0.02012809,17.055826,39.635863)"
       inkscape:connector-curvature="0"
       style="fill:none;stroke:#1f70c1;stroke-width:27.37000084"
       d="M 0,13.683 H 1030 V 66.915 H 0 m 0,53.232 h 975 v 53.242 H 0 v 53.222 h 975 v 53.222 H 0 m 0,53.242 h 1030 v 53.242 H 0"
       clip-path="url(#b)"
       id="path8" />
  </g>
</svg>
