<?xml version="1.0" encoding="UTF-8" standalone="no"?>
<!-- Created with Inkscape (http://www.inkscape.org/) -->

<svg
   xmlns:dc="http://purl.org/dc/elements/1.1/"
   xmlns:cc="http://creativecommons.org/ns#"
   xmlns:rdf="http://www.w3.org/1999/02/22-rdf-syntax-ns#"
   xmlns:svg="http://www.w3.org/2000/svg"
   xmlns="http://www.w3.org/2000/svg"
   xmlns:sodipodi="http://sodipodi.sourceforge.net/DTD/sodipodi-0.dtd"
   xmlns:inkscape="http://www.inkscape.org/namespaces/inkscape"
   width="20.740864mm"
   height="27.779345mm"
   viewBox="0 0 20.740864 27.779345"
   version="1.1"
   id="svg8"
   inkscape:version="0.92.2 5c3e80d, 2017-08-06"
   sodipodi:docname="NTNU-logo.svg">
  <defs
     id="defs2">
    <clipPath
       id="clipPath45"
       clipPathUnits="userSpaceOnUse">
      <path
         inkscape:connector-curvature="0"
         id="path43"
         d="M 0,84.075 H 58.793 V 0 H 0 Z" />
    </clipPath>
    <clipPath
       id="clipPath546"
       clipPathUnits="userSpaceOnUse">
      <path
         inkscape:connector-curvature="0"
         id="path544"
         d="M 0,84.075 H 58.793 V 0 H 0 Z" />
    </clipPath>
  </defs>
  <sodipodi:namedview
     id="base"
     pagecolor="#ffffff"
     bordercolor="#666666"
     borderopacity="1.0"
     inkscape:pageopacity="0.0"
     inkscape:pageshadow="2"
     inkscape:zoom="4.5717422"
     inkscape:cx="17.978038"
     inkscape:cy="78.744599"
     inkscape:document-units="mm"
     inkscape:current-layer="layer1"
     showgrid="true"
     fit-margin-top="0"
     fit-margin-left="0"
     fit-margin-right="0"
     fit-margin-bottom="0"
     inkscape:window-width="1280"
     inkscape:window-height="675"
     inkscape:window-x="0"
     inkscape:window-y="1"
     inkscape:window-maximized="1">
    <inkscape:grid
       type="xygrid"
       id="grid85"
       originx="-16.776701"
       originy="-239.34188" />
  </sodipodi:namedview>
  <metadata
     id="metadata5">
    <rdf:RDF>
      <cc:Work
         rdf:about="">
        <dc:format>image/svg+xml</dc:format>
        <dc:type
           rdf:resource="http://purl.org/dc/dcmitype/StillImage" />
        <dc:title></dc:title>
      </cc:Work>
    </rdf:RDF>
  </metadata>
  <g
     inkscape:label="Layer 1"
     inkscape:groupmode="layer"
     id="layer1"
     transform="translate(-16.776699,-29.878786)">
    <g
       transform="matrix(0.28694818,0,0,-0.28694818,18.684517,56.488827)"
       inkscape:label="NTNU_vertical"
       id="g538"
       style="stroke-width:1.22941279">
      <g
         id="g540"
         style="stroke-width:1.22941279">
        <g
           clip-path="url(#clipPath546)"
           id="g542"
           style="stroke-width:1.22941279">
          <path
             inkscape:connector-curvature="0"
             id="path548"
             style="fill:#214ca1;fill-opacity:1;fill-rule:nonzero;stroke:none;stroke-width:1.22941279"
             d="M 14.694,69.381 H 44.098 V 39.974 H 14.694 Z M 44.098,84.075 H 14.694 C 6.577,84.075 0,77.497 0,69.381 V 39.975 C 0,31.86 6.577,25.282 14.694,25.282 h 29.404 c 8.115,0 14.695,6.578 14.695,14.693 v 29.406 c 0,8.116 -6.58,14.694 -14.695,14.694" />
          <g
             transform="translate(29.2988,66.8379)"
             id="g550"
             style="stroke-width:1.22941279">
            <path
               inkscape:connector-curvature="0"
               id="path552"
               style="fill:#214ca1;fill-opacity:1;fill-rule:nonzero;stroke:none;stroke-width:1.22941279"
               d="m 0,0 c -6.661,0 -12.059,-5.402 -12.059,-12.062 0,-6.661 5.398,-12.059 12.059,-12.059 6.662,0 12.06,5.398 12.06,12.059 C 12.06,-5.402 6.662,0 0,0" />
          </g>
          <g
             transform="translate(6.3994,18.6934)"
             id="g554"
             style="stroke-width:1.22941279">
            <path
               inkscape:connector-curvature="0"
               id="path556"
               style="fill:#210e08;fill-opacity:1;fill-rule:nonzero;stroke:none;stroke-width:1.22941279"
               d="m 0,0 6.423,-9.336 v 7.183 l -0.02,1.708 H 4.473 V 0 H 8.61 V -0.445 H 7.015 L 6.995,-2.153 V -13.271 L 6.7,-13.363 -1.911,-0.836 v -10.06 l 0.018,-1.762 h 1.985 v -0.446 h -4.285 v 0.446 h 1.708 l 0.016,1.762 v 8.743 l -0.016,1.708 H -4.193 V 0 Z" />
          </g>
          <g
             transform="translate(27.8169,18.6934)"
             id="g558"
             style="stroke-width:1.22941279">
            <path
               inkscape:connector-curvature="0"
               id="path560"
               style="fill:#210e08;fill-opacity:1;fill-rule:nonzero;stroke:none;stroke-width:1.22941279"
               d="m 0,0 v -4.194 h -0.558 c -0.055,0.649 -0.129,1.465 -0.705,2.429 -0.667,1.133 -1.577,1.19 -2.469,1.227 H -4.77 l -0.019,-1.671 v -8.557 l 0.019,-1.892 h 2.004 v -0.446 h -6.087 v 0.446 h 2.004 l 0.019,1.892 v 8.557 l -0.019,1.671 h -0.853 c -1.076,-0.02 -1.894,-0.02 -2.673,-1.263 -0.612,-0.984 -0.668,-1.762 -0.705,-2.393 h -0.537 V 0 H 0" />
          </g>
          <g
             transform="translate(33.0869,18.6934)"
             id="g562"
             style="stroke-width:1.22941279">
            <path
               inkscape:connector-curvature="0"
               id="path564"
               style="fill:#210e08;fill-opacity:1;fill-rule:nonzero;stroke:none;stroke-width:1.22941279"
               d="m 0,0 6.423,-9.336 v 7.183 l -0.02,1.708 H 4.473 V 0 H 8.612 V -0.445 H 7.016 L 6.997,-2.153 V -13.271 L 6.7,-13.363 -1.911,-0.836 v -10.06 l 0.019,-1.762 h 1.985 v -0.446 h -4.286 v 0.446 h 1.707 l 0.018,1.762 v 8.743 l -0.018,1.708 H -4.193 V 0 Z" />
          </g>
          <g
             transform="translate(48.9053,18.6934)"
             id="g566"
             style="stroke-width:1.22941279">
            <path
               inkscape:connector-curvature="0"
               id="path568"
               style="fill:#210e08;fill-opacity:1;fill-rule:nonzero;stroke:none;stroke-width:1.22941279"
               d="m 0,0 v -0.445 h -1.838 l -0.019,-1.578 v -7.089 c 0.019,-1.838 0.055,-3.583 3.507,-3.583 3.491,0 3.712,1.523 3.769,3.174 v 7.498 L 5.4,-0.445 H 3.525 V 0 H 7.627 V -0.445 H 6.013 L 5.995,-2.023 v -6.756 c -0.019,-2.432 -0.038,-4.51 -4.846,-4.51 -0.685,0 -2.318,0.074 -3.358,0.501 -1.651,0.705 -1.689,2.153 -1.707,3.934 v 6.831 l -0.02,1.578 H -5.53 V 0 H 0" />
          </g>
        </g>
      </g>
    </g>
  </g>
</svg>
